<svg xmlns="http://www.w3.org/2000/svg" viewBox="0 0 291.74 151">
  <defs>
    <style>
      .cls-1, .cls-2 {
        fill: transparent;
      }

      .cls-1 {
        stroke: #588ab6;
        stroke-miterlimit: 10;
      }
    </style>
  </defs>
  <title>1Ресурс 1arrow</title>
  <g id="Слой_2" data-name="Слой 2">
    <g id="Слой_1-2" data-name="Слой 1">
      <g>
        <circle class="cls-1" cx="75.5" cy="75.5" r="75"/>
        <circle class="cls-1" cx="75.5" cy="75.5" r="65"/>
        <circle class="cls-1" cx="75.5" cy="75.5" r="55"/>
        <circle class="cls-1" cx="75.5" cy="75.5" r="45"/>
        <circle class="cls-1" cx="75.5" cy="75.5" r="35"/>
        <circle class="cls-1" cx="75.5" cy="75.5" r="25"/>
        <circle class="cls-1" cx="75.5" cy="75.5" r="15"/>
        <circle class="cls-1" cx="75.5" cy="75.5" r="5"/>
        <g>
          <path class="cls-2" d="M75.5,75.41H259.26"/>
          <path d="M75.5,76.66H259.26a1.25,1.25,0,0,0,0-2.5H75.5a1.25,1.25,0,0,0,0,2.5Z"/>
        </g>
        <g>
          <path class="cls-2" d="M290.43,31.37l-31.64,44"/>
          <path d="M289.35,30.74l-31.64,44c-.94,1.31,1.23,2.56,2.16,1.26l31.64-44c.94-1.31-1.23-2.56-2.16-1.26Z"/>
        </g>
        <g>
          <path class="cls-2" d="M290.43,119.46l-31.64-44"/>
          <path d="M291.51,118.82l-31.64-44c-.93-1.3-3.1,0-2.16,1.26l31.64,44.05c.93,1.29,3.1,0,2.16-1.27Z"/>
        </g>
        <g>
          <path class="cls-2" d="M256.43,31.37l-31.64,44"/>
          <path d="M255.35,30.74l-31.64,44c-.94,1.31,1.23,2.56,2.16,1.26l31.64-44c.94-1.31-1.23-2.56-2.16-1.26Z"/>
        </g>
        <g>
          <path class="cls-2" d="M256.43,119.46l-31.64-44"/>
          <path d="M257.51,118.82l-31.64-44c-.93-1.3-3.1,0-2.16,1.26l31.64,44.05c.93,1.29,3.1,0,2.16-1.27Z"/>
        </g>
        <g>
          <path class="cls-2" d="M224.43,31.37l-31.64,44"/>
          <path d="M223.35,30.74l-31.64,44c-.94,1.31,1.23,2.56,2.16,1.26l31.64-44c.94-1.31-1.23-2.56-2.16-1.26Z"/>
        </g>
        <g>
          <path class="cls-2" d="M224.43,119.46l-31.64-44"/>
          <path d="M225.51,118.82l-31.64-44c-.93-1.3-3.1,0-2.16,1.26l31.64,44.05c.93,1.29,3.1,0,2.16-1.27Z"/>
        </g>
      </g>
    </g>
  </g>
</svg>
