<svg xmlns="http://www.w3.org/2000/svg" viewBox="0 0 196.66 238.08">
  <defs>
    <style>
      .cls-1 {
        fill: #fff;
      }
    </style>
  </defs>
  <title>1Ресурс 3cup</title>
  <g id="Слой_2" data-name="Слой 2">
    <g id="Слой_1-2" data-name="Слой 1">
      <g>
        <g>
          <path class="cls-1" d="M9.22,233.08H187.44"/>
          <path d="M9.22,238.08H187.44c6.43,0,6.44-10,0-10H9.22c-6.43,0-6.44,10,0,10Z"/>
        </g>
        <g>
          <path class="cls-1" d="M22.82,211h151"/>
          <path d="M22.82,216h151c6.44,0,6.45-10,0-10h-151c-6.44,0-6.45,10,0,10Z"/>
        </g>
        <g>
          <path class="cls-1" d="M98.33,208.2V98.12"/>
          <path d="M103.33,208.2V98.12c0-6.44-10-6.45-10,0V208.2c0,6.44,10,6.45,10,0Z"/>
        </g>
        <g>
          <path class="cls-1" d="M31.89,49.29a13.48,13.48,0,0,1-7.36,2.26c-12.16,0-22-17.59-22-39.31H23.05A109,109,0,0,0,31.89,49.29Z"/>
          <path d="M30.63,47.14C11.81,57.87,5.14,23.73,5,12.24l-2.5,2.5H23.05l-2.5-2.5a117.25,117.25,0,0,0,9.18,38.32C31,53.51,35.3,51,34.05,48a110.17,110.17,0,0,1-8.5-35.79,2.55,2.55,0,0,0-2.5-2.5H2.5A2.53,2.53,0,0,0,0,12.24C.14,23.8,2.43,36.34,9.7,45.67c5.9,7.57,14.72,10.76,23.45,5.78C36,49.86,33.43,45.54,30.63,47.14Z"/>
        </g>
        <g>
          <path class="cls-1" d="M164.77,49.29a13.48,13.48,0,0,0,7.36,2.26c12.16,0,22-17.59,22-39.31H173.61A109,109,0,0,1,164.77,49.29Z"/>
          <path d="M163.51,51.45c8.72,5,17.55,1.79,23.45-5.78,7.27-9.33,9.56-21.87,9.7-33.43a2.53,2.53,0,0,0-2.5-2.5H173.61a2.55,2.55,0,0,0-2.5,2.5A110.17,110.17,0,0,1,162.61,48c-1.25,2.93,3,5.48,4.32,2.53a117.25,117.25,0,0,0,9.18-38.32l-2.5,2.5h20.55l-2.5-2.5c-.14,11.51-6.82,45.63-25.63,34.9C163.23,45.54,160.71,49.86,163.51,51.45Z"/>
        </g>
        <g>
          <path class="cls-1" d="M173.84,5c0,51.42-33.81,93.11-75.51,93.11S22.82,56.42,22.82,5Z"/>
          <path d="M168.84,5c-.21,32.73-15.17,68.43-46.38,82.82C93.14,101.34,61.21,87,44.2,61.42,33.11,44.72,28,24.94,27.82,5l-5,5h151c6.43,0,6.45-10,0-10h-151a5.07,5.07,0,0,0-5,5c.24,36.72,17.7,76.74,53,92.21C104.2,111.83,140,96.9,160,68.12,172.77,49.74,178.69,27.23,178.84,5,178.88-1.44,168.88-1.44,168.84,5Z"/>
        </g>
      </g>
    </g>
  </g>
</svg>
