<svg xmlns="http://www.w3.org/2000/svg" viewBox="0 0 407.13 405.09">
  <defs>
    <style>
      .cls-1 {
        fill: #fff;
      }
    </style>
  </defs>
  <title>1Ресурс 2directions</title>
  <g id="Слой_2" data-name="Слой 2">
    <g id="Слой_1-2" data-name="Слой 1">
      <g>
        <g>
          <path class="cls-1" d="M203.67,402.59V2.52"/>
          <path d="M206.17,402.59V2.52c0-3.21-5-3.22-5,0V402.59c0,3.22,5,3.22,5,0Z"/>
        </g>
        <g>
          <path class="cls-1" d="M403.71,198.65H3.64"/>
          <path d="M403.71,196.15H3.64c-3.22,0-3.22,5,0,5H403.71c3.21,0,3.22-5,0-5Z"/>
        </g>
        <g>
          <g>
            <path class="cls-1" d="M169.8,36.38,203.67,2.5"/>
            <path d="M171.57,38.15,205.44,4.27c2.28-2.28-1.25-5.81-3.53-3.53L168,34.61c-2.28,2.28,1.26,5.81,3.54,3.54Z"/>
          </g>
          <g>
            <path class="cls-1" d="M237.55,36.38Q220.61,19.45,203.67,2.5"/>
            <path d="M239.32,34.61,205.44.74c-2.28-2.28-5.81,1.25-3.53,3.53l33.87,33.88c2.28,2.27,5.81-1.26,3.54-3.54Z"/>
          </g>
        </g>
        <g>
          <g>
            <path class="cls-1" d="M373.77,162l30.75,36.73"/>
            <path d="M372,163.72l30.75,36.74c2.07,2.47,5.59-1.09,3.53-3.54l-30.75-36.73c-2.07-2.47-5.59,1.08-3.53,3.53Z"/>
          </g>
          <g>
            <path class="cls-1" d="M367.79,229.44l36.73-30.75"/>
            <path d="M369.56,231.21l36.73-30.75c2.47-2.07-1.08-5.59-3.53-3.54L366,227.67c-2.47,2.07,1.08,5.59,3.53,3.54Z"/>
          </g>
        </g>
        <g>
          <g>
            <path class="cls-1" d="M237.55,368.71q-16.94,16.95-33.88,33.88"/>
            <path d="M235.78,367l-33.87,33.87c-2.28,2.28,1.25,5.82,3.53,3.54l33.88-33.88c2.27-2.28-1.26-5.81-3.54-3.53Z"/>
          </g>
          <g>
            <path class="cls-1" d="M169.8,368.71l33.87,33.88"/>
            <path d="M168,370.48l33.88,33.88c2.27,2.27,5.81-1.26,3.53-3.54L171.57,367c-2.28-2.28-5.82,1.25-3.54,3.53Z"/>
          </g>
        </g>
        <g>
          <g>
            <path class="cls-1" d="M36.38,232.53,2.5,198.65"/>
            <path d="M38.15,230.76Q21.2,213.83,4.27,196.88C2,194.61-1.54,198.14.74,200.42l33.87,33.87c2.28,2.28,5.81-1.25,3.54-3.53Z"/>
          </g>
          <g>
            <path class="cls-1" d="M36.38,164.78,2.5,198.65"/>
            <path d="M34.61,163,.74,196.88c-2.28,2.28,1.25,5.82,3.53,3.54l33.88-33.87c2.27-2.28-1.26-5.82-3.54-3.54Z"/>
          </g>
        </g>
      </g>
    </g>
  </g>
</svg>
