<svg xmlns="http://www.w3.org/2000/svg" xmlns:xlink="http://www.w3.org/1999/xlink" viewBox="0 0 720 1157">
  <defs>
    <style>
      .cls-1 {
        fill: url(#linear-gradient);
      }

      .cls-2 {
        fill: url(#linear-gradient-2);
      }

      .cls-3 {
        fill: url(#linear-gradient-3);
      }

      .cls-4 {
        fill: url(#linear-gradient-4);
      }

      .cls-5 {
        fill: url(#linear-gradient-5);
      }

      .cls-6 {
        fill: url(#linear-gradient-12);
      }

      .cls-7, .cls-9 {
        fill: #f3f3f3;
      }

      .cls-8 {
        fill: #fff;
      }

      .cls-9 {
        stroke: #f9f8f8;
      }

      .cls-10 {
        fill: #eee;
      }

      .cls-11 {
        fill: #e2e2e2;
      }

      .cls-12 {
        filter: url(#Case);
      }
    </style>
    <linearGradient id="linear-gradient" x1="0.5" x2="0.5" y2="1" gradientUnits="objectBoundingBox">
      <stop offset="0" stop-color="#fff"/>
      <stop offset="1" stop-color="#e3e3e3"/>
    </linearGradient>
    <filter id="Case" x="0" y="0" width="720" height="1157" filterUnits="userSpaceOnUse">
      <feOffset input="SourceAlpha"/>
      <feGaussianBlur stdDeviation="49.5" result="blur"/>
      <feFlood flood-opacity="0.161"/>
      <feComposite operator="in" in2="blur"/>
      <feComposite in="SourceGraphic"/>
    </filter>
    <linearGradient id="linear-gradient-2" x1="0.5" x2="0.5" y2="1" gradientUnits="objectBoundingBox">
      <stop offset="0" stop-color="#f6f6f6"/>
      <stop offset="1" stop-color="#ececec"/>
    </linearGradient>
    <linearGradient id="linear-gradient-3" x1="0.5" x2="0.5" y2="1" gradientUnits="objectBoundingBox">
      <stop offset="0" stop-color="#fff"/>
      <stop offset="1" stop-color="#f3f3f3"/>
    </linearGradient>
    <linearGradient id="linear-gradient-4" x1="0.5" x2="0.5" y2="1" gradientUnits="objectBoundingBox">
      <stop offset="0" stop-color="#fff"/>
      <stop offset="1" stop-color="#e5e5e5"/>
    </linearGradient>
    <linearGradient id="linear-gradient-5" x1="1" y1="0.377" x2="0" y2="0.377" gradientUnits="objectBoundingBox">
      <stop offset="0" stop-color="#fff" stop-opacity="0"/>
      <stop offset="0.322" stop-color="#fdfdfd" stop-opacity="0"/>
      <stop offset="1" stop-color="#dadada"/>
    </linearGradient>
    <linearGradient id="linear-gradient-12" x1="0.5" x2="0.5" y2="1" gradientUnits="objectBoundingBox">
      <stop offset="0" stop-color="#f3f3f3"/>
      <stop offset="1" stop-color="#fff"/>
    </linearGradient>
  </defs>
  <g id="iPhone_X_-_Light" data-name="iPhone X - Light" transform="translate(-35.5 74.5)">
    <g class="cls-12" transform="matrix(1, 0, 0, 1, 35.5, -74.5)">
      <path id="Case-2" data-name="Case" class="cls-1" d="M57,0H366a57,57,0,0,1,57,57V803a57,57,0,0,1-57,57H57A57,57,0,0,1,0,803V57A57,57,0,0,1,57,0Z" transform="translate(148.5 148.5)"/>
    </g>
    <path id="Bezel" class="cls-2" d="M47,0H360a47,47,0,0,1,47,47V797a47,47,0,0,1-47,47H47A47,47,0,0,1,0,797V47A47,47,0,0,1,47,0Z" transform="translate(192 82)"/>
    <path id="Glass" class="cls-3" d="M44.441,0H358.559A44.326,44.326,0,0,1,403,44.211V795.789A44.326,44.326,0,0,1,358.559,840H44.441A44.326,44.326,0,0,1,0,795.789V44.211A44.326,44.326,0,0,1,44.441,0Z" transform="translate(194 84)"/>
    <g id="Button" transform="translate(750 -1256)">
      <g id="Group_39" data-name="Group 39" transform="translate(-144 1530)">
        <path id="Rectangle_21" data-name="Rectangle 21" class="cls-4" d="M0,0H3A2,2,0,0,1,5,2V94a2,2,0,0,1-2,2H0a0,0,0,0,1,0,0V0A0,0,0,0,1,0,0Z"/>
        <path id="Rectangle_101" data-name="Rectangle 101" class="cls-5" d="M0,0H3A2,2,0,0,1,5,2V94a2,2,0,0,1-2,2H0a0,0,0,0,1,0,0V0A0,0,0,0,1,0,0Z"/>
      </g>
    </g>
    <g id="Button-2" data-name="Button" transform="translate(750 -1256)">
      <path id="Rectangle_28" data-name="Rectangle 28" class="cls-4" d="M2,0H5A0,0,0,0,1,5,0V60a0,0,0,0,1,0,0H2a2,2,0,0,1-2-2V2A2,2,0,0,1,2,0Z" transform="translate(-569 1510)"/>
      <path id="Rectangle_103" data-name="Rectangle 103" class="cls-5" d="M0,0H3A2,2,0,0,1,5,2V58a2,2,0,0,1-2,2H0a0,0,0,0,1,0,0V0A0,0,0,0,1,0,0Z" transform="translate(-564 1570) rotate(180)"/>
    </g>
    <g id="Button-3" data-name="Button" transform="translate(750 -1256)">
      <path id="Rectangle_29" data-name="Rectangle 29" class="cls-4" d="M2,0H5A0,0,0,0,1,5,0V60a0,0,0,0,1,0,0H2a2,2,0,0,1-2-2V2A2,2,0,0,1,2,0Z" transform="translate(-569 1588)"/>
      <path id="Rectangle_104" data-name="Rectangle 104" class="cls-5" d="M0,0H3A2,2,0,0,1,5,2V58a2,2,0,0,1-2,2H0a0,0,0,0,1,0,0V0A0,0,0,0,1,0,0Z" transform="translate(-564 1648) rotate(180)"/>
    </g>
    <g id="Button-4" data-name="Button" transform="translate(750 -1256)">
      <path id="Rectangle_31" data-name="Rectangle 31" class="cls-4" d="M1,0H5A0,0,0,0,1,5,0V32a0,0,0,0,1,0,0H1a1,1,0,0,1-1-1V1A1,1,0,0,1,1,0Z" transform="translate(-569 1447)"/>
      <path id="Rectangle_149" data-name="Rectangle 149" class="cls-5" d="M0,0H4A1,1,0,0,1,5,1V31a1,1,0,0,1-1,1H0a0,0,0,0,1,0,0V0A0,0,0,0,1,0,0Z" transform="translate(-564 1479) rotate(180)"/>
    </g>
    <g id="Camera" transform="translate(438.133 99.74)">
      <ellipse id="Ellipse_7" data-name="Ellipse 7" class="cls-6" cx="7.5" cy="7.5" rx="7.5" ry="7.5" transform="translate(0.867 -0.74)"/>
      <circle id="Ellipse_8" data-name="Ellipse 8" class="cls-3" cx="6.5" cy="6.5" r="6.5" transform="translate(1.867 0.26)"/>
      <ellipse id="Ellipse_10" data-name="Ellipse 10" class="cls-7" cx="4.5" cy="4.5" rx="4.5" ry="4.5" transform="translate(3.867 2.26)"/>
      <ellipse id="Ellipse_9" data-name="Ellipse 9" class="cls-8" cx="1.5" cy="1" rx="1.5" ry="1" transform="translate(6.867 2.26)"/>
    </g>
    <path id="Ear_Piece" data-name="Ear Piece" class="cls-9" d="M4,.5H59a3.5,3.5,0,0,1,0,7H4a3.5,3.5,0,0,1,0-7Z" transform="translate(364 103)"/>
    <path id="Screen" class="cls-10" d="M337,812H38A38.043,38.043,0,0,1,0,774V38A38.043,38.043,0,0,1,38,0H78.263a6.812,6.812,0,0,1,5.23,5.17c.164.724.336,1.671.535,2.766.383,2.109.858,4.725,1.566,7.368.915,3.42,4.955,14.588,18.529,14.728,5.12.053,37.044.064,62.923.064,47.606,0,102.231-.038,104.786-.064,13.574-.14,17.614-11.308,18.529-14.728.709-2.649,1.185-5.268,1.567-7.373.2-1.1.371-2.042.534-2.761A6.592,6.592,0,0,1,297.647,0H337a38.043,38.043,0,0,1,38,38V774A38.043,38.043,0,0,1,337,812Z" transform="translate(208 98)"/>
    <path id="Home" class="cls-11" d="M2.5,0h125a2.5,2.5,0,0,1,0,5H2.5a2.5,2.5,0,0,1,0-5Z" transform="translate(331 893)"/>
  </g>
</svg>
