<svg xmlns="http://www.w3.org/2000/svg" viewBox="0 0 166.65 166.33">
  <defs>
    <style>
      .cls-1 {
        fill: #395772;
      }

      .cls-2 {
        fill: #fefefe;
      }
    </style>
  </defs>
  <title>1Ресурс 2arlogo</title>
  <g id="Слой_2" data-name="Слой 2">
    <g id="Слой_1-2" data-name="Слой 1">
      <rect class="cls-1" width="166.65" height="166.33"/>
      <path class="cls-2" d="M72.9,84.7H53.83l9.64-26Zm31.29,29.58L72.69,38.41H54.9L23.07,114.28H43l5.57-14.9H77.94l5.89,14.9Z"/>
      <path class="cls-2" d="M143.57,59.84a12.51,12.51,0,0,0-3.75-.43,16.11,16.11,0,0,0-14.47,9.22h-.21V60.91H108.21v53.37h17.57V86.84c0-4.39,3.11-12.1,12.54-12.1a17.09,17.09,0,0,1,4.5.53Z"/>
      <path class="cls-2" d="M53.87,142.15H51.26l1.32-3.56Zm4.28,4-4.31-10.37H51.41l-4.35,10.37h2.72l.76-2h4l.81,2Z"/>
      <path class="cls-2" d="M64.47,139c0,1.05-1,1.26-1.82,1.26H61.46v-2.42H62.8c.74,0,1.67.19,1.67,1.16m3,7.19-2.71-4.44a2.82,2.82,0,0,0,2.15-2.8c0-2.37-2-3.13-4-3.13H59v10.37h2.47v-4.12h.85l2.24,4.12Z"/>
      <rect class="cls-2" x="70.2" y="135.82" width="0.84" height="10.37"/>
      <polygon class="cls-2" points="74.38 141.16 74.38 145.44 80.07 145.44 80.07 146.19 73.56 146.19 73.56 135.82 79.88 135.82 79.88 136.56 74.38 136.56 74.38 140.43 79.53 140.43 79.53 141.16 74.38 141.16"/>
      <polygon class="cls-2" points="82.73 135.82 82.73 145.44 87.65 145.44 87.65 146.19 81.89 146.19 81.89 135.82 82.73 135.82"/>
      <polygon class="cls-2" points="89.81 135.82 89.81 145.44 94.74 145.44 94.74 146.19 88.98 146.19 88.98 135.82 89.81 135.82"/>
      <rect class="cls-2" x="96.06" y="135.82" width="0.84" height="10.37"/>
      <path class="cls-2" d="M103.24,146.47a4.55,4.55,0,0,1-1.89-.37,2.84,2.84,0,0,1-1.21-1,4.38,4.38,0,0,1-.61-1.32,5.31,5.31,0,0,1-.19-1.46v-6.49h.83v6.39a6.43,6.43,0,0,0,.08,1,4.11,4.11,0,0,0,.3.94,2.84,2.84,0,0,0,.56.81,2.64,2.64,0,0,0,.88.55,3.45,3.45,0,0,0,1.25.21,3.23,3.23,0,0,0,1.48-.31,2.29,2.29,0,0,0,1-.82,3.61,3.61,0,0,0,.49-1.12,5.66,5.66,0,0,0,.14-1.26v-6.39h.84v6.49a5.72,5.72,0,0,1-.19,1.46,4.64,4.64,0,0,1-.61,1.32,2.87,2.87,0,0,1-1.22,1,4.55,4.55,0,0,1-1.89.37"/>
      <polygon class="cls-2" points="109.6 146.19 109.6 135.82 110.89 135.82 114.72 144.8 118.51 135.82 119.8 135.82 119.8 146.19 118.97 146.19 118.97 136.89 118.94 136.89 114.94 146.19 114.47 146.19 110.47 136.89 110.44 136.89 110.44 146.19 109.6 146.19"/>
      <polygon class="cls-2" points="155.72 3.13 155.72 8.53 161.12 8.53 161.12 9.97 155.72 9.97 155.72 15.38 154.28 15.38 154.28 9.97 148.87 9.97 148.87 8.53 154.28 8.53 154.28 3.13 155.72 3.13"/>
      <path class="cls-2" d="M8.59,7.43V7H8.8a1.42,1.42,0,0,0,.84-.22A.77.77,0,0,0,10,6.08a.85.85,0,0,0-.29-.67A1,1,0,0,0,9,5.15a1,1,0,0,0-1,.58L7.6,5.5A1.53,1.53,0,0,1,9,4.72a1.57,1.57,0,0,1,1,.35,1.23,1.23,0,0,1,.42,1,1.13,1.13,0,0,1-.24.73,1.19,1.19,0,0,1-.62.41h0a1.26,1.26,0,0,1,.72.42,1.22,1.22,0,0,1,.28.82,1.36,1.36,0,0,1-.46,1.09A1.63,1.63,0,0,1,9,9.94a1.76,1.76,0,0,1-.95-.26,1.68,1.68,0,0,1-.62-.76l.48-.17a1.05,1.05,0,0,0,.42.55A1.11,1.11,0,0,0,9,9.51a1.08,1.08,0,0,0,.77-.3,1,1,0,0,0,.33-.77.85.85,0,0,0-.38-.77,1.63,1.63,0,0,0-.92-.24Z"/>
      <path class="cls-2" d="M12.34,9.21a.39.39,0,0,1,.11.27.36.36,0,0,1-.11.26.36.36,0,0,1-.54,0,.36.36,0,0,1-.11-.26.39.39,0,0,1,.11-.27.39.39,0,0,1,.54,0"/>
      <polygon class="cls-2" points="17.04 4.84 17.04 9.81 16.53 9.81 16.53 5.47 15.63 6.24 15.32 5.88 16.59 4.84 17.04 4.84"/>
      <path class="cls-2" d="M21.17,8.17V5.41h0L19.42,8.17Zm.49-3.33V8.17h.73v.44h-.73v1.2h-.49V8.61H18.89V8.12L21,4.84Z"/>
      <polygon class="cls-2" points="25.18 4.84 25.18 9.81 24.68 9.81 24.68 5.47 23.78 6.24 23.47 5.88 24.73 4.84 25.18 4.84"/>
      <path class="cls-2" d="M30.07,4.84v.45H28l0,1.54a2.08,2.08,0,0,1,.69-.11,1.59,1.59,0,0,1,1.15.43,1.48,1.48,0,0,1,.46,1.13,1.59,1.59,0,0,1-1.65,1.66A1.55,1.55,0,0,1,27.13,9l.46-.21a1,1,0,0,0,.41.49,1.06,1.06,0,0,0,.59.19,1.15,1.15,0,0,0,.84-.34,1.17,1.17,0,0,0,.33-.84,1.15,1.15,0,0,0-.35-.87,1.24,1.24,0,0,0-.89-.33,2.1,2.1,0,0,0-1,.28l.05-2.57Z"/>
      <path class="cls-2" d="M33.67,7.09a1.13,1.13,0,0,0,.3-.81,1.11,1.11,0,0,0-.31-.81,1.16,1.16,0,0,0-1.6,0,1.15,1.15,0,0,0-.31.81,1.13,1.13,0,0,0,.3.81,1.19,1.19,0,0,0,1.62,0M32.09,9.81l1.4-2.16,0,0a1.16,1.16,0,0,1-.71.18,1.46,1.46,0,0,1-1.51-1.53,1.48,1.48,0,0,1,.45-1.12,1.75,1.75,0,0,1,2.32,0,1.48,1.48,0,0,1,.45,1.12A2.58,2.58,0,0,1,34,7.63L32.67,9.81Z"/>
      <path class="cls-2" d="M38.42,9.37v.44H35.24V9.29l2-2.06a1.73,1.73,0,0,0,.59-1.14.88.88,0,0,0-.28-.68,1,1,0,0,0-.7-.26,1,1,0,0,0-.67.24,1.24,1.24,0,0,0-.36.64l-.49-.1a1.46,1.46,0,0,1,.52-.87,1.53,1.53,0,0,1,1-.34A1.61,1.61,0,0,1,38,5.08a1.25,1.25,0,0,1,.42,1,1.43,1.43,0,0,1-.2.77,4.31,4.31,0,0,1-.6.73L35.79,9.37Z"/>
      <path class="cls-2" d="M40.18,7.57a1.23,1.23,0,0,0,0,1.62,1.16,1.16,0,0,0,1.6,0,1.17,1.17,0,0,0,.31-.81,1.13,1.13,0,0,0-.3-.81,1.19,1.19,0,0,0-1.62,0m1.58-2.73L40.36,7l0,0a1.16,1.16,0,0,1,.71-.18A1.46,1.46,0,0,1,42.6,8.38a1.5,1.5,0,0,1-.45,1.12,1.75,1.75,0,0,1-2.32,0,1.51,1.51,0,0,1-.46-1.12A2.58,2.58,0,0,1,39.82,7l1.36-2.19Z"/>
    </g>
  </g>
</svg>
